<svg width="14" height="15" viewBox="0 0 14 15" fill="none" xmlns="http://www.w3.org/2000/svg">
<path d="M7.00207 0C9.21509 0 11.0972 1.63883 11.4082 3.83989C11.5836 5.072 11.2766 6.18848 10.5309 7.18135C10.4472 7.293 10.4751 7.31693 10.5748 7.37674C12.2415 8.38157 13.3182 9.83299 13.8006 11.723C13.9402 12.2653 14 12.8196 14 13.3778C14 13.7407 13.7368 14.0198 13.3859 14.0357C13.047 14.0517 12.7519 13.7885 12.736 13.4296C12.716 12.8754 12.6642 12.3251 12.5047 11.7948C12.0143 10.1839 11.0134 8.99962 9.51016 8.24201C9.42642 8.20213 9.38256 8.23802 9.32275 8.27391C8.58906 8.7205 7.79158 8.94379 6.93029 8.93183C6.12483 8.91987 5.3752 8.69657 4.68537 8.27391C4.60563 8.22606 4.55379 8.22207 4.47005 8.26593C2.73154 9.16709 1.67886 10.5747 1.33992 12.5125C1.2841 12.8275 1.28809 13.1465 1.26018 13.4655C1.24024 13.7167 1.10068 13.8922 0.873396 13.9879C0.642125 14.0836 0.422817 14.0477 0.23142 13.8922C0.0719232 13.7646 -0.00383796 13.5891 0.000149466 13.3818C0.0160992 11.6074 0.606238 10.0523 1.77854 8.72449C2.26102 8.17821 2.81926 7.72763 3.44528 7.36477C3.53301 7.31294 3.54098 7.28502 3.47718 7.20129C1.46353 4.56959 2.8711 0.77356 6.10888 0.0996856C6.40395 0.027912 6.70301 0.00797485 7.00207 0ZM6.99808 7.65187C8.74856 7.65187 10.1761 6.23235 10.18 4.47788C10.184 2.71544 8.76451 1.27996 7.01004 1.27598C5.25159 1.27199 3.82409 2.69949 3.8201 4.45794C3.8201 6.22437 5.23963 7.65187 6.99808 7.65187Z" fill="#343434"/>
</svg>
