<svg width="72" height="62" viewBox="0 0 72 62" fill="none" xmlns="http://www.w3.org/2000/svg">
<path fill-rule="evenodd" clip-rule="evenodd" d="M69.2671 4.19585C70.1702 2.8122 71.0804 1.41786 72 0.00825116C70.6601 0.00825116 69.3406 0.0104861 68.0353 0.0126969C65.0435 0.0177643 62.1263 0.0227052 59.2095 0.000316428C56.3395 -0.0222349 54.2739 1.16046 52.849 3.59851C50.2583 8.03297 47.6308 12.4468 45.0031 16.8608C44.2898 18.0591 43.5765 19.2573 42.8639 20.456C42.7739 20.6078 42.7012 20.7717 42.6278 20.9373C42.4492 21.3404 42.2659 21.7538 41.8161 22.028C41.7375 21.8927 41.662 21.7639 41.589 21.6392C41.4479 21.3986 41.3159 21.1733 41.1876 20.9463C40.5658 19.8507 39.9436 18.7553 39.3213 17.6599C37.1122 13.7712 34.9031 9.8825 32.7182 5.9806C32.3453 5.3145 31.9638 5.01214 31.1353 5.02008C26.4168 5.06643 21.697 5.06393 16.978 5.02551C15.938 5.01715 15.9226 5.25144 16.4218 6.03447C17.6598 7.97583 18.8812 9.92751 20.1026 11.8793C21.0796 13.4405 22.0566 15.0018 23.0423 16.558C23.3741 17.0817 23.5047 17.2968 22.689 17.4342C21.4503 17.643 20.8428 18.4878 21.1853 19.696C21.4722 20.7062 21.0311 20.7292 20.3037 20.6628C17.115 20.3713 14.2124 21.2211 11.4554 22.7179C10.6787 23.1397 9.85788 23.5051 9.02036 23.7949C7.09999 24.4597 5.76023 25.8329 4.48512 27.2699C4.15842 27.6386 3.86426 27.7982 3.39155 27.8679C1.84926 28.0955 0.856746 29.0585 0.21705 30.3694C-0.301044 31.4306 0.133984 32.4199 1.24896 32.9027C2.03594 33.2435 2.82807 33.5095 3.70412 33.1466C4.71162 32.7286 5.57054 33.0372 6.40977 33.6599C7.74354 34.6496 8.25778 34.5544 9.17493 33.2226C9.51148 32.734 9.85531 32.2241 9.9281 31.6177C9.95893 31.3584 10.0129 31.1408 10.2711 31.0472C11.1611 30.7233 11.9318 30.2043 12.7018 29.6858C13.3006 29.2826 13.8989 28.8797 14.5524 28.5691C14.639 28.528 14.732 28.47 14.8282 28.4099C15.168 28.1978 15.5477 27.9609 15.8267 28.3586C16.1205 28.7784 15.7027 29.0801 15.3531 29.3326C15.2916 29.377 15.2323 29.4198 15.1793 29.4615C14.4606 30.0263 13.7342 30.5815 13.0077 31.1367C12.1678 31.7787 11.3279 32.4207 10.5001 33.0773C9.00452 34.2633 7.44125 35.2414 5.48576 35.6122C4.23121 35.8494 3.60221 37.2819 4.18282 38.4854C4.23877 38.6014 4.29482 38.7173 4.35084 38.8331C5.1425 40.47 5.92882 42.0957 6.33869 43.8835C6.4998 44.5857 7.08964 44.475 7.58624 44.3818C7.69278 44.3618 7.79503 44.3427 7.88784 44.3325C8.40816 44.2745 8.28351 43.9694 8.16596 43.6816C8.1268 43.5857 8.08843 43.4918 8.07495 43.4095C7.79021 41.6706 7.16978 40.0423 6.29074 38.5109C5.91437 37.8561 5.77949 37.4589 6.78271 37.2338C8.04583 36.9498 9.18478 36.3602 10.197 35.5095L10.2861 35.4346C11.9765 34.014 13.6717 32.5893 15.5753 31.4352C17.1467 30.4835 17.9658 28.9972 18.6402 27.4044C18.6496 27.3822 18.66 27.3587 18.6708 27.3343C18.7752 27.0989 18.9162 26.7808 18.5379 26.7232C18.252 26.6796 17.9698 26.6087 17.6878 26.5378C16.8599 26.3296 16.0336 26.1219 15.1202 26.6076C13.4298 27.5066 11.6796 28.3016 9.93109 29.096C9.69366 29.2038 9.45626 29.3117 9.21904 29.4198C8.25788 29.8575 7.77853 30.0688 7.65012 30.4116C7.52368 30.7491 7.73747 31.2141 8.16658 32.1481C8.17828 32.1741 8.15492 32.2155 8.10474 32.3044C8.07047 32.3651 8.0237 32.4479 7.96705 32.5632C6.8287 31.1132 5.3189 31.1752 3.77564 31.2385C3.15602 31.2639 2.53101 31.2895 1.92248 31.2176C2.60328 29.9226 3.51958 29.5071 4.74159 29.8353C5.53286 30.0475 6.49284 29.505 6.32413 29.1567C5.92228 28.3259 6.39308 28.021 6.8147 27.7479C6.90342 27.6905 6.98996 27.6344 7.06574 27.5752C10.7639 24.6828 14.7596 22.4894 19.7188 22.6268C20.6081 22.651 21.509 22.5508 22.3919 22.4222C23.199 22.3048 23.9509 22.3575 24.5812 22.8703C25.2906 23.447 25.9102 23.2378 26.6694 22.93C27.167 22.7277 27.2171 22.4272 27.275 22.0803C27.2835 22.029 27.2923 21.9767 27.3026 21.9236C27.3892 21.4792 27.0829 21.3778 26.7925 21.2817C26.744 21.2657 26.6959 21.2497 26.6501 21.2324C25.7801 20.9025 24.9031 20.5876 24.0228 20.2848C23.9481 20.2591 23.8651 20.2372 23.7808 20.215C23.4426 20.1259 23.082 20.031 23.1365 19.6542C23.2055 19.1708 23.609 19.2253 23.974 19.2746C24.071 19.2877 24.1652 19.3004 24.2497 19.3026C25.1018 19.3235 25.9548 19.3844 26.8021 19.4705C26.8292 19.4732 26.8561 19.4761 26.8828 19.4789C27.2277 19.5158 27.5323 19.5483 27.7728 19.2044C27.9272 18.9836 28.0948 18.7701 28.2623 18.5568C28.5402 18.2029 28.8177 17.8494 29.0346 17.463L29.0662 17.4067C30.2158 15.3589 30.2187 15.3537 32.6943 15.9132C32.7905 15.9351 32.8865 15.9588 32.9825 15.9825C33.202 16.0367 33.4214 16.0909 33.6439 16.1229C34.9032 16.3041 35.4264 16.961 35.3939 18.2406C35.3511 19.9324 35.5536 21.5723 37.6251 22.2134C38.0216 22.3357 38.6999 22.5671 38.4999 23.1676C38.3377 23.654 37.9044 23.6125 37.4851 23.5723C37.3564 23.56 37.2291 23.5478 37.1113 23.551C37.0272 23.5534 36.9421 23.5316 36.8574 23.51C36.8226 23.5011 36.7879 23.4922 36.7534 23.485C36.0127 23.3317 35.6493 23.2564 35.4953 23.4022C35.3469 23.5427 35.3932 23.8889 35.4838 24.5692C35.485 24.5781 35.4863 24.5876 35.4876 24.5975C35.5023 24.7062 35.5234 24.8618 35.4778 24.8878C35.1724 25.0637 34.94 25.3391 34.7066 25.6156C34.2353 26.1741 33.7602 26.7371 32.672 26.4944C31.4641 26.2246 30.991 27.0494 31.366 28.258C31.4333 28.4746 31.4763 28.6983 31.5193 28.9221C31.5587 29.1273 31.5982 29.3326 31.6564 29.5325C31.8791 30.3015 31.9181 31.0902 31.957 31.8789C31.9904 32.5546 32.0238 33.2302 32.1727 33.8933C32.496 35.3366 33.0098 35.7542 34.4892 35.7634C35.0834 35.7669 35.6774 35.7775 36.2714 35.7881C36.7312 35.7962 37.1909 35.8044 37.6508 35.8093C38.2451 35.816 38.7255 35.7692 38.8549 34.9895C38.9589 34.3581 39.4372 33.9672 40.073 34.5632C40.4545 34.9211 40.5496 34.6379 40.6305 34.3903C40.6528 34.3225 40.6769 34.2565 40.7008 34.191C40.8148 33.8785 40.9242 33.5787 40.8138 33.1633C40.3736 31.5146 41.298 29.4131 42.7359 28.4822C43.605 27.9205 44.1172 28.1193 44.4113 29.1337C44.9084 30.8514 43.698 33.3437 42.0011 34.0524C41.5257 34.2509 41.3464 34.6645 41.1769 35.0553C41.1499 35.1175 41.1231 35.1792 41.0955 35.2393C40.9614 35.5306 41.2069 35.6273 41.4411 35.7194C41.5268 35.7531 41.6109 35.7863 41.6744 35.8281C42.2122 36.1839 42.2717 36.7197 42.0816 37.2038C41.6988 38.1772 41.3867 38.9365 39.8294 38.9185C39.2017 38.9113 38.6078 39.1949 37.9908 39.4894C37.2018 39.8661 36.3751 40.2607 35.3918 40.0882C34.3256 39.9011 33.1914 39.9429 32.1047 40.0465C30.8454 40.1663 30.2828 39.5065 30.0152 38.5088C29.9098 38.1159 29.7957 37.7247 29.6813 37.3325C29.4167 36.4255 29.1507 35.5137 28.9892 34.5661C28.9874 35.6047 28.8887 36.6439 28.79 37.6826C28.5693 40.0068 28.3488 42.3284 29.214 44.6357C29.2311 44.6811 29.2487 44.7267 29.2663 44.7723C29.5004 45.3796 29.7366 45.9918 28.7525 46.2326C27.7411 46.4803 27.9017 46.8937 28.4639 47.4918C29.8105 48.9238 31.0137 50.4698 32.1933 52.0346C33.3151 53.5217 33.322 53.8095 32.1308 55.226C31.9253 55.4703 31.7189 55.7139 31.5125 55.9574C30.1671 57.5451 28.8222 59.1322 27.7385 60.914C27.3155 61.6102 27.4174 61.8991 28.3033 61.862C29.3181 61.8185 30.3397 61.8102 31.3528 61.8678C31.989 61.9042 32.2982 61.6327 32.5782 61.1307C34.6318 57.4444 36.7028 53.7673 38.7761 50.091C39.5538 48.7111 40.3382 47.3348 41.1447 45.9198C41.5247 45.2532 41.9095 44.578 42.3008 43.8898C42.5195 44.2741 42.729 44.6398 42.9316 44.9935C43.3401 45.7067 43.7205 46.371 44.0923 47.0399C45.1174 48.884 46.1411 50.7287 47.1648 52.5733C48.6704 55.2863 50.176 57.9991 51.6856 60.7098C51.7209 60.7731 51.7547 60.8369 51.7884 60.9002C52.0568 61.4057 52.31 61.8827 53.1453 61.8745C58.271 61.8265 63.3963 61.844 68.522 61.8616H68.5232C69.2682 61.8632 69.38 61.6857 68.9728 61.0727C68.2364 59.9642 67.5155 58.8451 66.7946 57.7261C66.393 57.1028 65.9915 56.4794 65.5872 55.8579C64.8786 54.7679 64.1702 53.6779 63.4617 52.5879C59.346 46.2558 55.2301 39.9233 51.0943 33.6039C50.7359 33.0568 50.7042 32.6914 51.0716 32.1297C53.7484 28.0452 56.4083 23.95 59.0683 19.8548C60.2956 17.9652 61.5229 16.0757 62.7518 14.1872C64.9068 10.8761 67.0662 7.56773 69.2671 4.19585ZM16.5052 59.0678C15.9262 59.9836 15.3401 60.9107 14.7452 61.8532C15.552 61.8532 16.3405 61.8528 17.1156 61.8525C19.2713 61.8514 21.3227 61.8504 23.3746 61.8578C23.873 61.8595 24.0516 61.649 24.1783 61.185C24.7696 59.0113 25.5746 56.9053 26.4352 54.8201C26.6943 54.1924 26.6202 53.6959 25.9801 53.2946C24.788 52.547 23.6123 51.7715 22.4579 50.9693C21.9514 50.6176 21.7292 50.7655 21.4376 51.232C19.8237 53.8184 18.1946 56.3954 16.5052 59.0678Z" fill="#F48305"/>
</svg>
