<svg width="18" height="23" viewBox="0 0 18 23" fill="none" xmlns="http://www.w3.org/2000/svg">
<path fill-rule="evenodd" clip-rule="evenodd" d="M17.9941 5.65775C17.9941 4.09536 17.0639 2.82296 15.5732 2.33767C15.4957 2.314 15.4957 2.30808 15.4957 2.21931C15.4838 0.893641 14.5834 0 13.2477 0H4.75082C3.41517 0 2.51479 0.893641 2.50287 2.21931C2.50287 2.30808 2.4969 2.314 2.42535 2.33767C0.958513 2.81112 0.0104348 4.09536 0.00447207 5.61041C-0.00149069 10.416 -0.00149069 15.0913 0.00447207 19.5122C0.00447207 21.0864 1.14336 22.4771 2.71156 22.8263C2.74138 22.8322 2.77119 22.8382 2.79504 22.8382C2.85467 22.8441 2.87256 22.85 2.88448 22.8618L2.92026 22.9092H14.9829L15.0187 22.8796L15.0306 22.8677C16.7777 22.5955 18.0001 21.1929 18.0001 19.4471C17.9941 14.7895 17.9941 10.1496 17.9941 5.65775ZM3.55231 21.3468C2.38957 21.3468 1.57268 20.536 1.57268 19.376V5.67551C1.57268 4.93574 1.87678 4.39127 2.50883 4.00067C2.59827 4.62208 2.89641 5.11328 3.38535 5.46837C3.74908 5.72877 4.14859 5.86489 4.5779 5.86489H4.93567C7.71431 5.87081 10.5824 5.87081 13.4087 5.86489C14.4522 5.85897 15.3049 5.10145 15.4778 4.01251V4.00659C15.9489 4.28474 16.2411 4.68126 16.3722 5.22573C16.414 5.38552 16.414 5.55715 16.414 5.7051V12.5465V19.3879C16.414 20.5478 15.5971 21.3586 14.4343 21.3586C10.809 21.3468 7.18363 21.3468 3.55231 21.3468ZM13.9215 3.68109V2.314L13.9156 2.21931C13.9156 1.76953 13.7128 1.56831 13.2537 1.56831H10.2306H9.02016H7.81568H6.60524H4.69716C4.29766 1.56831 4.07703 1.78136 4.07703 2.17196V3.69885C4.083 4.07169 4.30958 4.29658 4.68523 4.29658H13.3133C13.7009 4.29658 13.9215 4.07761 13.9215 3.68109ZM5.8406 15.4413C6.09567 15.053 6.02031 14.5871 5.66669 14.3302C5.31306 14.0734 4.86089 14.157 4.58843 14.5274C4.56374 14.563 4.53953 14.5971 4.51604 14.6303L4.51597 14.6304L4.51595 14.6304C4.45674 14.7139 4.40219 14.7909 4.35654 14.8678C4.32538 14.822 4.29422 14.777 4.26438 14.7339C4.21648 14.6647 4.17197 14.6005 4.13625 14.5453C3.85799 14.163 3.40002 14.0734 3.0464 14.3362C2.68698 14.599 2.62321 15.065 2.89568 15.4712C2.9335 15.526 2.97132 15.5816 3.00939 15.6375L3.00939 15.6375L3.0094 15.6375L3.00941 15.6375C3.12887 15.813 3.25075 15.992 3.38263 16.1641C3.42901 16.2238 3.42321 16.2358 3.38263 16.2896C3.27249 16.4389 3.16234 16.5942 3.06379 16.7436C3.03771 16.7824 3.01017 16.8212 2.98264 16.86C2.9551 16.8989 2.92756 16.9377 2.90147 16.9765C2.78553 17.1438 2.72756 17.311 2.73336 17.4843C2.73916 17.8248 2.95365 18.1235 3.27249 18.231C3.50437 18.3086 3.8522 18.3086 4.15365 17.8965C4.18843 17.8487 4.22321 17.7949 4.2522 17.7411C4.28118 17.6874 4.33336 17.6038 4.36814 17.5679C4.40872 17.5918 4.45509 17.6754 4.48988 17.7411L4.4899 17.7412C4.51888 17.7949 4.54786 17.8487 4.58263 17.9024C4.76234 18.1473 5.00002 18.2728 5.2435 18.2728C5.39422 18.2728 5.55074 18.219 5.68987 18.1175C6.0435 17.8487 6.10147 17.3827 5.829 16.9825L5.75944 16.875L5.6972 16.783L5.69719 16.783C5.5959 16.633 5.49325 16.4811 5.38263 16.3373C5.30727 16.2477 5.30727 16.2119 5.37683 16.1223C5.53335 15.9132 5.67828 15.6922 5.8406 15.4413ZM5.36372 9.62914C5.69418 9.22475 6.17484 9.15735 6.53533 9.4637C6.89583 9.77006 6.91385 10.2664 6.57739 10.6707L6.52932 10.7259L6.24104 11.0795C5.79721 11.624 5.34412 12.1799 4.89508 12.7233C4.69681 12.9623 4.45648 13.091 4.21615 13.091C4.19212 13.091 4.16207 13.091 4.13804 13.0848C3.86767 13.0481 3.63335 12.8581 3.47713 12.5456C3.36601 12.319 3.26489 12.115 3.17138 11.9264L3.17133 11.9263C3.04746 11.6764 2.93695 11.4535 2.83425 11.2406C2.72009 11.0016 2.69606 10.7504 2.76816 10.5298C2.83425 10.3338 2.97244 10.1744 3.16471 10.0825C3.57327 9.88035 4.02388 10.058 4.2522 10.5114C4.2682 10.5441 4.28353 10.576 4.29887 10.608L4.29893 10.6081C4.32964 10.6721 4.36035 10.7361 4.3964 10.8055L4.63673 10.5114C4.74726 10.3767 4.85658 10.2445 4.96523 10.113L4.96526 10.113L4.96528 10.113C5.09877 9.95151 5.23125 9.79126 5.36372 9.62914ZM10.4083 12H12.2462H14.1432C14.4032 12 14.6337 11.9074 14.7873 11.7407C14.9291 11.5925 15.0001 11.3949 15.0001 11.1726C14.9941 10.6971 14.6455 10.3637 14.1491 10.3637H12.849H12.2698H11.7261H10.4142C9.90597 10.3637 9.54549 10.6971 9.54549 11.1726C9.54549 11.3949 9.6164 11.5925 9.75823 11.7407C9.91779 11.9074 10.1483 12 10.4083 12ZM10.3914 15.5455H14.1479C14.4023 15.5455 14.633 15.6381 14.7868 15.811C14.9287 15.9592 15.0057 16.163 14.9997 16.3853C14.9879 16.8608 14.6448 17.1819 14.142 17.1819H12.8287H12.2608H11.7047H11.1486H10.3855C10.1371 17.1819 9.91226 17.0893 9.75845 16.9287C9.61648 16.7805 9.54549 16.5829 9.54549 16.3606C9.54549 15.8913 9.90043 15.5455 10.3914 15.5455Z" fill="#8B1F8E"/>
</svg>
