<svg width="45" height="45" viewBox="0 0 45 45" fill="none" xmlns="http://www.w3.org/2000/svg">
<g clip-path="url(#clip0_18_881)">
<path fill-rule="evenodd" clip-rule="evenodd" d="M0 22.5C0 10.0736 10.0736 0 22.5 0C34.9264 0 45 10.0736 45 22.5C45 34.9264 34.9264 45 22.5 45C10.0736 45 0 34.9264 0 22.5Z" fill="#8B1F8D"/>
<mask id="mask0_18_881" style="mask-type:luminance" maskUnits="userSpaceOnUse" x="0" y="0" width="45" height="45">
<path fill-rule="evenodd" clip-rule="evenodd" d="M0 22.5C0 10.0736 10.0736 0 22.5 0C34.9264 0 45 10.0736 45 22.5C45 34.9264 34.9264 45 22.5 45C10.0736 45 0 34.9264 0 22.5Z" fill="white"/>
</mask>
<g mask="url(#mask0_18_881)">
<path fill-rule="evenodd" clip-rule="evenodd" d="M32.5078 28.3359H31.5312V21.5C31.5312 17.5361 28.8934 14.1771 25.2809 13.0854C25.4684 12.7071 25.5742 12.2818 25.5742 11.832C25.5742 10.2705 24.3037 9 22.7422 9C21.1806 9 19.9102 10.2705 19.9102 11.832C19.9102 12.2818 20.016 12.7071 20.2035 13.0854C16.591 14.1771 13.9531 17.5361 13.9531 21.5V28.3359H12.9766C12.4372 28.3359 12 28.7731 12 29.3125C12 29.8519 12.4372 30.2891 12.9766 30.2891H17.962C18.4125 32.4066 20.297 34 22.5469 34H22.9375C25.1874 34 27.0719 32.4066 27.5224 30.2891H32.5078C33.0472 30.2891 33.4844 29.8519 33.4844 29.3125C33.4844 28.7731 33.0472 28.3359 32.5078 28.3359ZM21.8633 11.832C21.8633 11.3474 22.2575 10.9531 22.7422 10.9531C23.2268 10.9531 23.6211 11.3474 23.6211 11.832C23.6211 12.3167 23.2268 12.7109 22.7422 12.7109C22.2575 12.7109 21.8633 12.3167 21.8633 11.832ZM22.9375 32.0469H22.5469C21.383 32.0469 20.3866 31.316 19.9927 30.2891H25.4916C25.0978 31.316 24.1014 32.0469 22.9375 32.0469ZM15.9062 28.3359V21.5C15.9062 17.7307 18.9729 14.6641 22.7422 14.6641C26.5115 14.6641 29.5781 17.7307 29.5781 21.5V28.3359C28.2512 28.3359 16.4224 28.3359 15.9062 28.3359Z" fill="white"/>
</g>
</g>
<defs>
<clipPath id="clip0_18_881">
<rect width="45" height="45" fill="white"/>
</clipPath>
</defs>
</svg>
