<svg width="7" height="27" viewBox="0 0 7 27" fill="none" xmlns="http://www.w3.org/2000/svg">
<path d="M-9.53674e-05 3.10405C-9.53674e-05 4.82081 1.39589 6.22543 3.11265 6.22543C4.82942 6.22543 6.23401 4.82948 6.24268 3.12139C6.24268 1.40462 4.84673 0 3.12997 0C1.41321 0 0.00857496 1.39596 -9.53674e-05 3.10405Z" fill="#841A7F"/>
<path d="M3.12997 16.6127C4.84673 16.6127 6.24268 15.2081 6.24268 13.4913C6.24268 11.7832 4.82938 10.3786 3.12129 10.3786C1.40453 10.3786 0.00858355 11.7832 0.00858355 13.5C0.00858355 15.2167 1.41321 16.6127 3.12997 16.6127Z" fill="#841A7F"/>
<path d="M3.12125 20.7659C1.40449 20.7659 0.00854349 22.1705 0.00854349 23.8873C0.00854349 25.604 1.41317 27 3.12993 27C4.84669 27 6.25131 25.5954 6.24264 23.8786C6.24264 22.1705 4.82934 20.7659 3.12125 20.7659Z" fill="#841A7F"/>
</svg>
