<svg width="18" height="16" viewBox="0 0 18 16" fill="none" xmlns="http://www.w3.org/2000/svg">
<path fill-rule="evenodd" clip-rule="evenodd" d="M17.455 3.21794C17.3167 3.03347 17.0986 2.92473 16.8668 2.92469H5.8702V4.37913H15.8815L15.2265 6.54497H7.33642V7.9994H14.7866L14.1221 10.1969H5.69003L2.90953 0.54305C2.82008 0.232811 2.53524 0.0181408 2.20996 0.015817L0.0106301 0L0 1.45444L1.6506 1.46625L4.4322 11.1239C4.52213 11.4361 4.80978 11.6513 5.13709 11.6513H7.08221C5.92482 11.7849 5.07332 12.7907 5.14077 13.9446C5.20823 15.0985 6.17121 16 7.33642 16C8.50162 16 9.46461 15.0985 9.53206 13.9446C9.59951 12.7907 8.74801 11.7849 7.59062 11.6513H12.214C11.0566 11.7849 10.2051 12.7907 10.2725 13.9446C10.34 15.0985 11.303 16 12.4682 16C13.6334 16 14.5964 15.0985 14.6638 13.9446C14.7313 12.7907 13.8798 11.7849 12.7224 11.6513H14.6675C14.9913 11.6514 15.2768 11.4407 15.3698 11.133L17.5692 3.8608C17.6356 3.64066 17.5933 3.40229 17.455 3.21794ZM8 13.6C8 14.0418 7.64183 14.4 7.2 14.4C6.75817 14.4 6.4 14.0418 6.4 13.6C6.4 13.1582 6.75817 12.8 7.2 12.8C7.64183 12.8 8 13.1582 8 13.6ZM12.8 14.4C13.2418 14.4 13.6 14.0418 13.6 13.6C13.6 13.1582 13.2418 12.8 12.8 12.8C12.3582 12.8 12 13.1582 12 13.6C12 14.0418 12.3582 14.4 12.8 14.4Z" fill="white"/>
</svg>
