<svg width="19" height="19" viewBox="0 0 19 19" fill="none" xmlns="http://www.w3.org/2000/svg">
<path fill-rule="evenodd" clip-rule="evenodd" d="M12.4191 6.75265L7.98148 11.135L6.77239 9.75268C6.50343 9.44522 6.03558 9.41364 5.72763 9.68309C5.41969 9.95255 5.3886 10.4199 5.65805 10.7278L7.38532 12.7019C7.51956 12.8554 7.71153 12.9467 7.91535 12.9541C7.92473 12.9545 7.93361 12.9545 7.94249 12.9545C8.13693 12.9545 8.32397 12.8781 8.46265 12.7414L13.4594 7.80629C13.7501 7.51857 13.753 7.04974 13.4658 6.75907C13.1786 6.46839 12.7098 6.46543 12.4191 6.75265ZM9.5 17.5195C5.07769 17.5195 1.48052 13.9223 1.48052 9.5C1.48052 5.07818 5.07769 1.48052 9.5 1.48052C13.9218 1.48052 17.5195 5.07818 17.5195 9.5C17.5195 13.9223 13.9218 17.5195 9.5 17.5195ZM9.5 0C4.26143 0 0 4.26192 0 9.5C0 14.7381 4.26143 19 9.5 19C14.7381 19 19 14.7381 19 9.5C19 4.26192 14.7381 0 9.5 0Z" fill="#343434"/>
</svg>
