<svg width="44" height="44" viewBox="0 0 44 44" fill="none" xmlns="http://www.w3.org/2000/svg">
<circle cx="22" cy="22" r="22" fill="#8B1F8E"/>
<path fill-rule="evenodd" clip-rule="evenodd" d="M30.3749 17.8529H15.3749C14.7834 17.8529 14.3034 17.352 14.3034 16.7349C14.3034 16.1178 14.7834 15.6169 15.3749 15.6169H30.3749C30.9663 15.6169 31.4463 16.1178 31.4463 16.7349C31.4463 17.352 30.9663 17.8529 30.3749 17.8529ZM22.6875 29.8529H15.3756C14.799 29.8529 14.3311 29.352 14.3311 28.7349C14.3311 28.1178 14.799 27.6169 15.3756 27.6169H22.6875C23.264 27.6169 23.732 28.1178 23.732 28.7349C23.732 29.352 23.264 29.8529 22.6875 29.8529ZM15.3749 23.8529H30.3749C30.9663 23.8529 31.4463 23.352 31.4463 22.7349C31.4463 22.1178 30.9663 21.6169 30.3749 21.6169H15.3749C14.7834 21.6169 14.3034 22.1178 14.3034 22.7349C14.3034 23.352 14.7834 23.8529 15.3749 23.8529Z" fill="white"/>
</svg>
