<svg width="20" height="23" viewBox="0 0 20 23" fill="none" xmlns="http://www.w3.org/2000/svg">
<path fill-rule="evenodd" clip-rule="evenodd" d="M18.5078 5.39062C19.004 5.39062 19.4062 5.79286 19.4062 6.28906V14.9141V22.1016C19.4062 22.5978 19.004 23 18.5078 23H11.3203H8.08594H0.898438C0.40223 23 0 22.5978 0 22.1016V14.9141V6.28906C0 5.79286 0.40223 5.39062 0.898438 5.39062H3.63625C3.99315 2.35943 6.5776 0 9.70312 0C12.8287 0 15.4131 2.35943 15.77 5.39062H18.5078ZM1.79688 14.9141V21.2031H8.08594H11.3203H17.6094V14.9141V7.1875H15.8125V9.88281C15.8125 10.379 15.4103 10.7812 14.9141 10.7812C14.4179 10.7812 14.0156 10.379 14.0156 9.88281V7.1875H5.39062V9.88281C5.39062 10.379 4.98839 10.7812 4.49219 10.7812C3.99598 10.7812 3.59375 10.379 3.59375 9.88281V7.1875H1.79688V14.9141ZM13.9554 5.39062C13.6122 3.35364 11.8362 1.79688 9.70312 1.79688C7.5701 1.79688 5.79407 3.35364 5.45087 5.39062H13.9554Z" fill="#F2F2F2"/>
</svg>
