<svg width="49" height="50" viewBox="0 0 49 50" fill="none" xmlns="http://www.w3.org/2000/svg">
<path d="M0 24.7346C0 38.395 10.9692 49.4693 24.4998 49.4693C38.0308 49.4693 49 38.395 49 24.7346C49 11.0739 38.0308 0 24.4998 0C10.9692 0 0 11.0739 0 24.7346Z" fill="#841A7F"/>
<path d="M10.4583 25.4609C10.3062 25.0887 10.286 24.7392 10.5709 24.4191C10.6864 24.2835 10.8376 24.2165 10.9888 24.1495C15.9672 22.0804 20.9407 20.0067 25.9235 17.9327C28.2817 16.9479 30.6355 15.968 32.9986 14.9876C33.5537 14.7545 34.0524 14.9349 34.2426 15.4317C34.3325 15.6663 34.282 15.8973 34.208 16.1247C33.2271 19.188 32.2511 22.2559 31.2706 25.3286C29.8469 29.7839 28.4235 34.2485 26.9998 38.7038C26.7619 39.4518 26.4611 39.6231 25.7012 39.4534C25.5892 39.3506 25.4723 39.2433 25.3602 39.1404C25.3252 38.983 25.2857 38.8304 25.2556 38.6775C24.5346 34.8571 23.814 31.0461 23.0979 27.2302C23.0742 27.1191 23.0794 27.0254 22.9058 27.0092C18.8687 26.5959 14.8287 26.2249 10.7993 25.774C10.6872 25.6711 10.5752 25.5683 10.4583 25.4609Z" fill="white"/>
</svg>
