<svg width="28" height="30" viewBox="0 0 28 30" fill="none" xmlns="http://www.w3.org/2000/svg">
<path fill-rule="evenodd" clip-rule="evenodd" d="M26.8756 4.99986C27.0577 4.99986 27.2075 5.05863 27.3246 5.17554C27.4414 5.29273 27.5005 5.44255 27.5003 5.62479V6.87493C27.5003 7.05718 27.4414 7.20707 27.3245 7.32398C27.2075 7.4411 27.0577 7.49966 26.8755 7.49966H25.0003V26.0158C25.0003 27.0965 24.6945 28.0306 24.0826 28.8187C23.4706 29.6062 22.735 30 21.8753 30H5.62493C4.76549 30 4.0298 29.6194 3.41773 28.8573C2.8058 28.0958 2.49979 27.1748 2.49979 26.0937V7.49966H0.624932C0.442754 7.49966 0.292935 7.4411 0.175679 7.32398C0.0584911 7.207 0 7.05718 0 6.87493V5.62479C0 5.44255 0.0587648 5.29273 0.175679 5.17554C0.292935 5.05863 0.44248 4.99986 0.624932 4.99986H6.66012L8.02731 1.73832C8.22269 1.25636 8.57425 0.84624 9.08213 0.507676C9.58995 0.16918 10.1044 0 10.6251 0H16.8753C17.3959 0 17.9105 0.16918 18.4186 0.507676C18.9261 0.84624 19.2777 1.25643 19.473 1.73832L20.8402 4.99986H26.8756ZM10.6642 2.49959C10.534 2.52545 10.4233 2.59728 10.3322 2.7144L9.37514 4.99959H18.1255L17.1877 2.7144C17.0968 2.59742 16.9858 2.52565 16.8556 2.49959H10.6642ZM22.5005 26.016C22.5005 26.3023 22.4551 26.5661 22.3638 26.8069C22.2725 27.0475 22.1779 27.2233 22.0805 27.334C21.9826 27.445 21.9147 27.5001 21.8754 27.5001H5.625C5.58594 27.5001 5.51794 27.445 5.42004 27.334C5.32228 27.2233 5.22781 27.0475 5.13662 26.8069C5.04556 26.5661 5 26.3021 5 26.016V7.49966H22.5005V26.016H22.5005ZM9.37514 23.7503H8.12521C7.94275 23.7503 7.79314 23.6917 7.67595 23.5747C7.5587 23.4572 7.50027 23.3078 7.50027 23.1252V11.8748C7.50027 11.6926 7.5589 11.5428 7.67595 11.4255C7.79314 11.3086 7.94275 11.2501 8.12521 11.2501H9.37514C9.55766 11.2501 9.70713 11.3086 9.82439 11.4255C9.9413 11.5428 10.0001 11.6926 10.0001 11.8748V23.1252C10.0001 23.3078 9.9413 23.4571 9.82439 23.5747C9.70748 23.6918 9.55759 23.7503 9.37514 23.7503ZM13.1253 23.7503H14.3752C14.5576 23.7503 14.7074 23.6918 14.8243 23.5747C14.9418 23.4571 15 23.3078 15 23.1252V11.8748C15 11.6926 14.9417 11.5428 14.8243 11.4255C14.7074 11.3086 14.5576 11.2501 14.3752 11.2501H13.1253C12.943 11.2501 12.7932 11.3086 12.676 11.4255C12.5588 11.5428 12.5003 11.6926 12.5003 11.8748V23.1252C12.5003 23.3078 12.5588 23.4572 12.676 23.5747C12.7931 23.6917 12.943 23.7503 13.1253 23.7503ZM19.3752 23.7503H18.1255C17.9428 23.7503 17.7935 23.6917 17.676 23.5747C17.5589 23.4572 17.5004 23.3078 17.5004 23.1252V11.8748C17.5004 11.6926 17.5589 11.5428 17.676 11.4255C17.7935 11.3086 17.9428 11.2501 18.1255 11.2501H19.3752C19.5578 11.2501 19.7076 11.3086 19.8247 11.4255C19.9416 11.5428 19.9999 11.6926 19.9999 11.8748V23.1252C19.9999 23.3078 19.9417 23.4571 19.8247 23.5747C19.7076 23.6918 19.5578 23.7503 19.3752 23.7503Z" fill="white"/>
</svg>
