<svg width="15" height="15" viewBox="0 0 15 15" fill="none" xmlns="http://www.w3.org/2000/svg">
<path fill-rule="evenodd" clip-rule="evenodd" d="M13.9773 6.05078H8.86362V1.00846C8.86362 0.451789 8.40544 0 7.84089 0H7.15911C6.59456 0 6.13638 0.451789 6.13638 1.00846V6.05078H1.02273C0.458181 6.05078 0 6.50257 0 7.05924V7.73151C0 8.28818 0.458181 8.73997 1.02273 8.73997H6.13638V13.7823C6.13638 14.339 6.59456 14.7907 7.15911 14.7907H7.84089C8.40544 14.7907 8.86362 14.339 8.86362 13.7823V8.73997H13.9773C14.5418 8.73997 15 8.28818 15 7.73151V7.05924C15 6.50257 14.5418 6.05078 13.9773 6.05078Z" fill="#D91765"/>
</svg>
