<svg width="16" height="16" viewBox="0 0 16 16" fill="none" xmlns="http://www.w3.org/2000/svg">
<path fill-rule="evenodd" clip-rule="evenodd" d="M7.21562 0C11.1943 0 14.4312 3.23694 14.4312 7.21562C14.4312 8.62562 14.0244 9.94219 13.3224 11.0548L15.5303 13.2627C16.1566 13.8889 16.1566 14.9042 15.5303 15.5303C14.9041 16.1566 13.8889 16.1566 13.2627 15.5303L11.0548 13.3224C9.94212 14.0244 8.62555 14.4312 7.21562 14.4312C3.23693 14.4312 -7.62939e-06 11.1943 -7.62939e-06 7.21562C-7.62939e-06 3.23694 3.23687 0 7.21562 0ZM7.21562 12.8278C10.3101 12.8278 12.8278 10.3102 12.8278 7.21563C12.8278 4.12109 10.3102 1.60347 7.21562 1.60347C4.12105 1.60347 1.60346 4.12109 1.60346 7.21563C1.60346 10.3102 4.12102 12.8278 7.21562 12.8278Z" fill="#9B9B9B"/>
</svg>
