<svg width="21" height="19" viewBox="0 0 21 19" fill="none" xmlns="http://www.w3.org/2000/svg">
<path fill-rule="evenodd" clip-rule="evenodd" d="M18.7608 1.64457C19.1594 1.64636 19.5582 1.64815 19.9552 1.63564C20.4639 1.61923 20.8195 1.79975 21 2.29207V15.787C20.8031 16.2684 20.4366 16.4161 19.9278 16.4106C18.4667 16.3989 17.0084 16.4011 15.5489 16.4033C14.9648 16.4042 14.3805 16.4051 13.7958 16.4051C13.6134 16.4051 13.4311 16.4045 13.2488 16.4039C12.8841 16.4027 12.5194 16.4015 12.1547 16.4051C11.6679 16.4106 11.3233 16.7607 11.3178 17.253C11.3178 17.2986 11.3184 17.3442 11.319 17.3897C11.3202 17.4809 11.3214 17.5721 11.3178 17.6633C11.2959 18.068 10.9896 18.3963 10.5848 18.4455C10.1964 18.4947 9.82443 18.2376 9.70956 17.8547C9.66708 17.7145 9.67078 17.5743 9.67456 17.4316C9.67565 17.3905 9.67674 17.3492 9.67674 17.3077C9.67127 16.7388 9.33759 16.4051 8.76869 16.4051H7.78406C7.02208 16.4051 6.2595 16.4045 5.49652 16.4039H5.4953H5.49408H5.49287H5.49165H5.49107H5.49049H5.4899H5.48932C3.95966 16.4027 2.42839 16.4015 0.897109 16.4051C0.508726 16.4051 0.224277 16.252 0.0601719 15.8964C0.0584522 15.8921 0.0568677 15.8875 0.0552484 15.8829C0.0465658 15.8578 0.0368827 15.8299 0 15.8253V2.2483C0.202396 1.76146 0.585309 1.6247 1.09403 1.63017C3.63767 1.64658 6.18677 1.64111 8.73587 1.63564C9.34853 1.63564 9.90649 1.79428 10.3879 2.18266C10.4644 2.24283 10.5082 2.25377 10.5903 2.18813C11.0716 1.79428 11.6296 1.63564 12.2423 1.63564C12.8412 1.63838 13.4416 1.63838 14.0426 1.63838C14.6437 1.63838 15.2454 1.63838 15.8471 1.64111C16.0167 1.64111 16.0933 1.61923 16.0714 1.42778C16.0526 1.25368 16.058 1.07554 16.0634 0.900319V0.900232L16.0659 0.815118C16.0768 0.361094 16.4324 0.00553245 16.8755 6.22733e-05C17.3295 -0.0054079 17.696 0.350153 17.707 0.809648L17.7071 0.815075V0.81513V0.815184V0.815237V0.815289C17.7125 1.04307 17.7178 1.26551 17.707 1.48795C17.7015 1.61923 17.7398 1.64658 17.8656 1.64658C18.1633 1.6419 18.462 1.64324 18.7608 1.64457ZM8.25547 14.7645H8.25548C8.72716 14.7541 9.20098 14.7437 9.67127 14.9063V14.682V4.22851C9.67127 3.60491 9.34853 3.28217 8.72493 3.28217C6.43293 3.28217 4.13545 3.28217 1.83798 3.2767C1.66293 3.2767 1.63011 3.32593 1.63011 3.49003C1.63558 7.1824 1.63558 10.8693 1.63011 14.5617C1.63011 14.7367 1.67387 14.7695 1.84345 14.7695C3.86194 14.7641 5.88591 14.7641 7.90987 14.7695C8.02489 14.7695 8.14011 14.767 8.25547 14.7645ZM19.3535 14.5562C19.348 12.7127 19.348 10.8638 19.348 9.02038C19.348 7.17693 19.348 5.33348 19.3535 3.48456C19.3535 3.30952 19.3097 3.27123 19.1401 3.2767C18.7189 3.28764 18.2923 3.28764 17.8711 3.2767C17.7288 3.27123 17.707 3.32046 17.707 3.44627C17.7106 3.94223 17.7094 4.4382 17.7082 4.93416C17.7076 5.18214 17.707 5.43012 17.707 5.6781C17.707 6.19777 17.3678 6.5588 16.8864 6.5588C16.4105 6.5588 16.0714 6.1923 16.0714 5.67263C16.0714 5.48801 16.071 5.3034 16.0707 5.11878C16.0697 4.56492 16.0686 4.01107 16.0768 3.45721C16.0823 3.29858 16.0331 3.27123 15.8854 3.27123C14.6819 3.2767 13.4785 3.2767 12.2751 3.2767C11.6241 3.28217 11.3123 3.59397 11.3123 4.25039V13.7028C11.3123 13.8214 11.3129 13.9399 11.3135 14.0584C11.3148 14.2955 11.316 14.5325 11.3123 14.7695C11.3123 14.8625 11.3178 14.9118 11.4327 14.8735C11.7335 14.775 12.0453 14.7641 12.3626 14.7641C14.6218 14.7641 16.8864 14.7641 19.1456 14.7695C19.3207 14.7695 19.3535 14.7203 19.3535 14.5562ZM13.8067 8.20539C14.8242 8.19991 15.8416 8.19991 16.8591 8.20539C17.3514 8.20539 17.7124 8.56642 17.7124 9.03685C17.707 9.50182 17.3459 9.84644 16.8591 9.84644H15.322H13.8067C13.3199 9.84097 12.9588 9.49635 12.9534 9.03685C12.9479 8.56642 13.3144 8.20539 13.8067 8.20539ZM16.8481 11.4875C15.8362 11.482 14.8242 11.482 13.8177 11.4875C13.3199 11.4875 12.9534 11.8431 12.9534 12.308C12.9534 12.7785 13.3144 13.1231 13.8122 13.1285H15.3274H16.8427C17.3405 13.1285 17.707 12.7839 17.707 12.3135C17.707 11.8376 17.3459 11.4875 16.8481 11.4875ZM4.1081 4.92328C5.14196 4.91781 6.17036 4.91781 7.20422 4.92328C7.68013 4.92875 8.03569 5.29525 8.03022 5.75475C8.01928 6.20877 7.66371 6.55339 7.19328 6.55886H5.63428H4.11904C3.63767 6.55886 3.27663 6.20877 3.27116 5.74928C3.27116 5.28978 3.62673 4.92328 4.1081 4.92328ZM7.20422 8.20539C6.17036 8.19991 5.14196 8.19991 4.1081 8.20539C3.62673 8.20539 3.27116 8.57189 3.27116 9.03138C3.27663 9.49088 3.6322 9.84097 4.11904 9.84097H5.63428H7.19328C7.66371 9.8355 8.01928 9.49088 8.03022 9.03685C8.03569 8.57736 7.68013 8.21086 7.20422 8.20539ZM4.11904 11.4875C5.14196 11.482 6.17036 11.482 7.19328 11.4875C7.67465 11.4875 8.03022 11.8485 8.03022 12.308C8.02475 12.773 7.66371 13.1231 7.18234 13.1231H5.6671H4.12998C3.6322 13.1231 3.27116 12.773 3.27116 12.3025C3.27663 11.8431 3.63767 11.4875 4.11904 11.4875Z" fill="white"/>
</svg>
