<svg width="19" height="22" viewBox="0 0 19 22" fill="none" xmlns="http://www.w3.org/2000/svg">
<path fill-rule="evenodd" clip-rule="evenodd" d="M17.1875 17.0156H18.0469C18.5215 17.0156 18.9062 17.4003 18.9062 17.875C18.9062 18.3497 18.5215 18.7344 18.0469 18.7344H13.6597C13.2632 20.5978 11.6049 22 9.625 22H9.28125C7.30133 22 5.64301 20.5978 5.24655 18.7344H0.859375C0.384705 18.7344 0 18.3497 0 17.875C0 17.4003 0.384705 17.0156 0.859375 17.0156H1.71875V11C1.71875 7.51181 4.04007 4.55586 7.21909 3.59511C7.05409 3.26227 6.96094 2.88797 6.96094 2.49219C6.96094 1.11803 8.07896 0 9.45312 0C10.8273 0 11.9453 1.11803 11.9453 2.49219C11.9453 2.88797 11.8522 3.26227 11.6872 3.59511C14.8662 4.55586 17.1875 7.51181 17.1875 11V17.0156ZM9.45312 1.71875C9.02663 1.71875 8.67969 2.06569 8.67969 2.49219C8.67969 2.91869 9.02663 3.26562 9.45312 3.26562C9.87962 3.26562 10.2266 2.91869 10.2266 2.49219C10.2266 2.06569 9.87962 1.71875 9.45312 1.71875ZM9.28125 20.2812C8.25705 20.2812 7.38022 19.6381 7.03362 18.7344H11.8726C11.526 19.6381 10.6492 20.2812 9.625 20.2812H9.28125ZM3.4375 11V17.0156H15.4688V11C15.4688 7.68301 12.7701 4.98438 9.45312 4.98438C6.13614 4.98438 3.4375 7.68301 3.4375 11Z" fill="#8B1F8E"/>
</svg>
