<svg width="26" height="25" viewBox="0 0 26 25" fill="none" xmlns="http://www.w3.org/2000/svg">
<path fill-rule="evenodd" clip-rule="evenodd" d="M25.1873 12.5907C24.9793 12.5907 24.7714 12.5113 24.6128 12.3526L23.9686 11.7084V22.0372C23.9686 23.3252 22.9207 24.3731 21.6326 24.3731H4.36715C3.07915 24.3731 2.03123 23.3252 2.03123 22.0372V11.7085L1.38702 12.3527C1.06974 12.67 0.555276 12.67 0.237997 12.3527C-0.0793324 12.0354 -0.0793324 11.521 0.237997 11.2037L10.3428 1.09885C11.8079 -0.366282 14.1919 -0.366282 15.657 1.09885L25.7618 11.2036C26.0791 11.521 26.0791 12.0354 25.7618 12.3526C25.6032 12.5113 25.3952 12.5907 25.1873 12.5907ZM14.508 2.24792L22.3436 10.0834V22.0372C22.3436 22.4292 22.0247 22.7481 21.6326 22.7481H17.0624V16.3497C17.0624 14.9497 15.9233 13.8107 14.5233 13.8107H11.4765C10.0764 13.8107 8.93742 14.9497 8.93742 16.3497V22.7481H4.36715C3.97512 22.7481 3.65622 22.4292 3.65622 22.0372V10.0835L11.4918 2.24792C12.3234 1.41633 13.6764 1.41633 14.508 2.24792ZM10.5623 22.748H15.4372V16.3496C15.4372 15.8456 15.0272 15.4356 14.5232 15.4356H11.4763C10.9723 15.4356 10.5623 15.8456 10.5623 16.3496V22.748Z" fill="white"/>
</svg>
