<svg width="14" height="19" viewBox="0 0 14 19" fill="none" xmlns="http://www.w3.org/2000/svg">
<path fill-rule="evenodd" clip-rule="evenodd" d="M6.38706 13.4934V14.2283C6.38706 14.571 6.66411 14.8477 7.0064 14.8477C7.34828 14.8477 7.62574 14.571 7.62574 14.2283V13.4892C8.00519 13.2704 8.26449 12.8658 8.26449 12.3992C8.26449 11.7055 7.70007 11.1399 7.0064 11.1399C6.31233 11.1399 5.7479 11.7055 5.7479 12.3992C5.7479 12.8575 5.99564 13.2704 6.38706 13.4934ZM12.7613 16.1813C12.7613 16.33 12.7266 17.6554 11.5235 17.7049C9.72778 17.7751 2.58926 17.7132 2.50048 17.709C2.39024 17.709 1.42324 17.6554 1.23868 15.9253V8.74923H12.7613V16.1813ZM6.98163 1.23868C10.4603 1.23868 10.6597 4.12481 10.6708 4.43448V7.51054H3.29283L3.29242 4.60377C3.29614 4.46339 3.41588 1.23868 6.98163 1.23868ZM13.3807 7.51054H11.9095L11.9091 4.41797C11.8703 2.89026 10.7902 0 6.98163 0C3.17268 0 2.09296 2.98935 2.05415 4.58725V7.51054H0.619341C0.277465 7.51054 0 7.78718 0 8.12988V15.9584C0 15.979 0.00123868 15.9996 0.00330315 16.0203C0.242369 18.4027 1.76801 18.9931 2.50544 18.9477C2.69331 18.9518 5.57283 18.9766 8.11378 18.9766C9.56676 18.9766 10.9095 18.9684 11.5738 18.9436C13.4926 18.8651 14 17.1021 14 16.1813V8.12988C14 7.78718 13.7225 7.51054 13.3807 7.51054Z" fill="#343434"/>
</svg>
