<svg width="25" height="25" viewBox="0 0 25 25" fill="none" xmlns="http://www.w3.org/2000/svg">
<path fill-rule="evenodd" clip-rule="evenodd" d="M12.4999 0C9.54128 0 7.14281 2.39846 7.14281 5.35712V8.92855C7.14574 11.886 9.54248 14.2827 12.4999 14.2857C15.4574 14.2827 17.8541 11.886 17.8571 8.92855V5.35712C17.8571 2.39846 15.4586 0 12.4999 0ZM16.0714 8.92853C16.0714 10.901 14.4724 12.5 12.4999 12.5C10.5275 12.5 8.92851 10.901 8.92851 8.92853V5.3571C8.92851 3.38464 10.5275 1.78566 12.4999 1.78566C14.4724 1.78566 16.0714 3.38464 16.0714 5.3571V8.92853ZM20.1544 17.3848L16.3535 16.1179C16.2626 16.0873 16.1673 16.0717 16.0714 16.0714H8.92856C8.83261 16.0716 8.73734 16.0873 8.64642 16.1179L4.84553 17.3848C1.95012 18.3468 -0.00276978 21.0561 2.94873e-06 24.1071C2.94873e-06 24.6003 0.399747 25 0.892874 25H24.1071C24.6002 25 24.9999 24.6003 24.9999 24.1071C25.0027 21.0561 23.0498 18.3468 20.1544 17.3848ZM1.86071 23.2142C2.18884 21.2853 3.55396 19.6946 5.4107 19.0776L9.07315 17.8571H15.9267L19.5874 19.0776C21.4449 19.6941 22.8108 21.2849 23.1392 23.2142H1.86071Z" fill="white"/>
</svg>
