<svg width="25" height="25" viewBox="0 0 25 25" fill="none" xmlns="http://www.w3.org/2000/svg">
<path d="M24.9 10.7243C24.1411 6.19094 21.6647 2.95567 17.4908 1.01851C16.2526 0.439358 14.9346 0.139798 13.5566 0.039944C13.5166 0.039944 13.4567 0.0599123 13.4368 0C12.7777 0 12.1386 0 11.4796 0C11.22 0.119825 10.9404 0.0998563 10.6808 0.139798C5.54829 0.858745 1.25459 4.89284 0.256049 9.98538C-0.323103 12.9411 0.0763023 15.7569 1.49423 18.413C1.61405 18.6327 1.63403 18.8324 1.55415 19.0721C1.05488 20.5899 0.575576 22.1076 0.0763072 23.6254C-0.0834589 24.1447 0.0363754 24.564 0.435791 24.8237C0.735352 25.0234 1.05487 25.0234 1.39437 24.9035C2.95209 24.4043 4.50982 23.905 6.04757 23.4057C6.22731 23.3458 6.34712 23.3658 6.50688 23.4457C7.8649 24.2046 9.32277 24.6839 10.8605 24.8836C14.7149 25.3429 18.1099 24.2845 20.9857 21.6883C22.9628 19.8909 24.201 17.6542 24.7602 15.038C24.86 14.5587 24.9399 14.0794 24.9599 13.6001C24.9599 13.5602 24.9399 13.5002 24.9998 13.4803C24.9998 12.8212 24.9998 12.1822 24.9998 11.5231C24.9199 11.2635 24.9399 10.9839 24.9 10.7243ZM21.0057 18.7526C19.408 20.9094 17.2911 22.2874 14.655 22.8466C12.1187 23.3658 9.68225 23.0063 7.42556 21.7282C6.80646 21.3687 6.24727 21.2689 5.56827 21.5285C4.64961 21.888 3.71099 22.1476 2.77236 22.4471C2.71245 22.4671 2.63256 22.4871 2.51273 22.527C2.85223 21.4686 3.17177 20.4501 3.51127 19.4515C3.55121 19.3317 3.59117 19.2119 3.63111 19.112C3.79088 18.7126 3.73095 18.3531 3.51127 17.9937C2.47279 16.2961 1.97352 14.4389 1.9935 12.4418C2.01347 10.1252 2.71246 8.00828 4.13038 6.17097C5.62819 4.23381 7.54538 2.89576 9.9219 2.31661C13.1572 1.51778 16.1528 2.09693 18.8289 4.09401C21.1455 5.81149 22.5434 8.1281 22.9628 11.0039C23.3622 13.8198 22.7232 16.4359 21.0057 18.7526Z" fill="white"/>
<path d="M7.62531 11.2834C6.96627 11.2834 6.40707 11.8227 6.40707 12.4817C6.40707 13.1607 6.96627 13.7199 7.62531 13.7199C8.28434 13.7199 8.84352 13.1807 8.84352 12.5216C8.86349 11.8426 8.30432 11.2834 7.62531 11.2834Z" fill="white"/>
<path d="M12.5179 11.2834C11.8389 11.2834 11.2797 11.8426 11.2997 12.5017C11.2997 13.1607 11.8589 13.7199 12.5179 13.7199C13.1969 13.7199 13.7561 13.1607 13.7361 12.5017C13.7361 11.8426 13.1769 11.2834 12.5179 11.2834Z" fill="white"/>
<path d="M17.4107 11.2834C16.7517 11.2834 16.1925 11.8227 16.1725 12.4817C16.1525 13.1607 16.7117 13.7199 17.3707 13.7199C18.0298 13.7199 18.589 13.1807 18.6089 12.5216C18.6289 11.8626 18.0897 11.2834 17.4107 11.2834Z" fill="white"/>
</svg>
