<svg width="33" height="33" viewBox="0 0 33 33" fill="none" xmlns="http://www.w3.org/2000/svg">
<path d="M32.8684 14.1562C31.8666 8.17214 28.5977 3.90154 23.0881 1.34445C21.4537 0.579959 19.7138 0.184535 17.8949 0.0527267C17.8422 0.0527267 17.7631 0.0790852 17.7367 0C16.8668 0 16.0232 0 15.1533 0C14.8106 0.15817 14.4415 0.131812 14.0988 0.184535C7.32383 1.13356 1.65607 6.45862 0.337989 13.1809C-0.426501 17.0824 0.10072 20.7994 1.9724 24.3055C2.13057 24.5955 2.15695 24.8591 2.0515 25.1754C1.39246 27.1789 0.75977 29.1824 0.100727 31.1859C-0.110167 31.8713 0.0480161 32.4249 0.575251 32.7676C0.970676 33.0312 1.39244 33.0312 1.84059 32.8731C3.89681 32.214 5.95304 31.555 7.98289 30.8959C8.22014 30.8169 8.37829 30.8432 8.58919 30.9487C10.3818 31.9504 12.3062 32.5831 14.3361 32.8467C19.4239 33.453 23.9053 32.0559 27.7014 28.6288C30.3112 26.2563 31.9457 23.3038 32.6838 19.8504C32.8156 19.2177 32.9211 18.585 32.9475 17.9523C32.9475 17.8996 32.9211 17.8205 33.0002 17.7942C33.0002 16.9242 33.0002 16.0807 33.0002 15.2107C32.8947 14.868 32.9211 14.499 32.8684 14.1562ZM27.7278 24.7537C25.6189 27.6007 22.8245 29.4197 19.3448 30.1578C15.9968 30.8432 12.7807 30.3687 9.80185 28.6816C8.98464 28.207 8.2465 28.0752 7.3502 28.4179C6.13756 28.8925 4.89856 29.2352 3.65956 29.6306C3.58047 29.6569 3.47501 29.6833 3.31684 29.736C3.76499 28.3389 4.18678 26.9944 4.63493 25.6763C4.68765 25.5182 4.7404 25.36 4.79313 25.2282C5.00402 24.7009 4.92491 24.2264 4.63493 23.7519C3.26412 21.5112 2.60508 19.0595 2.63145 16.4234C2.65781 13.3654 3.58049 10.5711 5.45217 8.14578C7.4293 5.58869 9.96002 3.82245 13.0971 3.05796C17.3677 2.00349 21.3219 2.76798 24.8544 5.40415C27.9123 7.67126 29.7577 10.7292 30.3113 14.5253C30.8385 18.2423 29.9949 21.6957 27.7278 24.7537Z" fill="#FF00EB"/>
<path d="M10.0654 14.8944C9.19543 14.8944 8.45727 15.6061 8.45727 16.4761C8.45727 17.3724 9.19543 18.1105 10.0654 18.1105C10.9353 18.1105 11.6734 17.3987 11.6734 16.5288C11.6998 15.6325 10.9617 14.8944 10.0654 14.8944Z" fill="#FF00EB"/>
<path d="M16.524 14.8944C15.6277 14.8944 14.8895 15.6325 14.9159 16.5024C14.9159 17.3724 15.6541 18.1105 16.524 18.1105C17.4203 18.1105 18.1584 17.3724 18.132 16.5024C18.132 15.6325 17.3939 14.8944 16.524 14.8944Z" fill="#FF00EB"/>
<path d="M22.9823 14.8944C22.1123 14.8944 21.3742 15.6061 21.3478 16.4761C21.3215 17.3724 22.0596 18.1105 22.9295 18.1105C23.7995 18.1105 24.5376 17.3987 24.564 16.5288C24.5903 15.6588 23.8786 14.8944 22.9823 14.8944Z" fill="#FF00EB"/>
</svg>
