<svg width="12" height="19" viewBox="0 0 12 19" fill="none" xmlns="http://www.w3.org/2000/svg">
<path d="M11.4028 1.97715C11.402 0.81863 10.571 0.00129071 9.41131 0.00045403C8.27998 -0.000382646 7.14866 0.00017524 6.01738 0.000268204C4.63877 0.000361168 3.2602 -0.000615669 1.88159 0.00156899C1.46665 0.00221973 1.09372 0.137251 0.766259 0.389183C0.233575 0.799015 -0.000834445 1.34885 2.23144e-06 2.01559C0.00330245 4.61877 0.00134982 7.2219 0.00134982 9.82508C0.00134982 12.218 4.86795e-05 14.611 0.00200092 17.0039C0.00279112 17.9681 0.522321 18.661 1.44248 18.9422C1.47883 18.9533 1.53391 18.9429 1.54748 19C4.29294 19 7.0384 19 9.78386 19C9.78958 18.9901 9.79418 18.9723 9.80124 18.9712C10.7408 18.831 11.4094 17.9751 11.4079 17.0211C11.3999 12.0065 11.4059 6.99181 11.4028 1.97715ZM9.74733 18.0131C9.63252 18.0463 9.51543 18.0466 9.39857 18.0467C6.93772 18.0475 4.47682 18.0479 2.01597 18.0469C1.3306 18.0466 0.954324 17.6659 0.954231 16.977C0.953906 14.4785 0.954092 11.98 0.954092 9.48157C0.954092 6.98312 0.953673 4.48462 0.954464 1.98617C0.954603 1.47012 1.21207 1.10649 1.66754 0.986896C1.77324 0.959146 1.8874 0.954637 1.99771 0.954544C4.46474 0.952824 6.93182 0.952406 9.39885 0.953754C10.0733 0.954125 10.4512 1.3369 10.4513 2.01424C10.4516 7.00501 10.4515 11.9958 10.4513 16.9865C10.4513 17.5264 10.2068 17.88 9.74733 18.0131Z" fill="#343434"/>
<path d="M5.70936 15.5158C5.191 15.5104 4.75091 15.9495 4.75356 16.4694C4.75621 16.9878 5.17724 17.4088 5.69621 17.412C6.2228 17.4153 6.65476 16.987 6.65234 16.464C6.64997 15.9493 6.2242 15.5211 5.70936 15.5158Z" fill="#343434"/>
<path d="M7.40815 1.58741C6.80259 1.58332 6.19692 1.58365 5.59131 1.58714C5.2796 1.58895 5.06686 1.79082 5.07146 2.06748C5.07592 2.33563 5.28737 2.52742 5.58992 2.53077C5.88652 2.53407 6.18317 2.53146 6.47977 2.53146C6.78873 2.53142 7.09779 2.53444 7.40671 2.53058C7.70285 2.52686 7.91978 2.32443 7.92038 2.05953C7.92103 1.79561 7.7042 1.58941 7.40815 1.58741Z" fill="#343434"/>
<path d="M3.95346 1.58863C3.70227 1.59193 3.47962 1.81964 3.48547 2.06721C3.49142 2.31858 3.71626 2.53305 3.97005 2.52938C4.22259 2.52575 4.4424 2.30059 4.43743 2.0507C4.43241 1.79961 4.2079 1.58528 3.95346 1.58863Z" fill="#343434"/>
</svg>
