<svg width="37" height="33" viewBox="0 0 37 33" fill="none" xmlns="http://www.w3.org/2000/svg">
<path fill-rule="evenodd" clip-rule="evenodd" d="M36.0008 6.63699C35.7156 6.25652 35.2658 6.03225 34.7878 6.03216H12.1073V9.03194H32.7556L31.4046 13.499H15.1313V16.4987H30.4974L29.1267 21.031H11.7357L6.0009 1.12004C5.81641 0.480173 5.22893 0.0374154 4.55803 0.0326225L0.0219245 0L0 2.99977L3.40435 3.02414L9.1414 22.943C9.32687 23.5869 9.92015 24.0308 10.5952 24.0308H14.607C12.2199 24.3063 10.4637 26.3809 10.6028 28.7608C10.7419 31.1407 12.7281 32.9999 15.1313 32.9999C17.5346 32.9999 19.5207 31.1407 19.6598 28.7608C19.799 26.3809 18.0427 24.3063 15.6556 24.0308H25.1913C22.8042 24.3063 21.048 26.3809 21.1871 28.7608C21.3262 31.1407 23.3124 32.9999 25.7156 32.9999C28.1188 32.9999 30.105 31.1407 30.2441 28.7608C30.3832 26.3809 28.627 24.3063 26.2399 24.0308H30.2517C30.9196 24.0309 31.5084 23.5963 31.7002 22.9617L36.2363 7.96289C36.3734 7.50884 36.2861 7.01722 36.0008 6.63699ZM16.4998 28.0499C16.4998 28.9612 15.7611 29.6999 14.8498 29.6999C13.9385 29.6999 13.1998 28.9612 13.1998 28.0499C13.1998 27.1387 13.9385 26.3999 14.8498 26.3999C15.7611 26.3999 16.4998 27.1387 16.4998 28.0499ZM26.3999 29.6999C27.3111 29.6999 28.0499 28.9612 28.0499 28.0499C28.0499 27.1387 27.3111 26.3999 26.3999 26.3999C25.4886 26.3999 24.7499 27.1387 24.7499 28.0499C24.7499 28.9612 25.4886 29.6999 26.3999 29.6999Z" fill="#FF00EB"/>
</svg>
