<svg width="27" height="25" viewBox="0 0 27 25" fill="none" xmlns="http://www.w3.org/2000/svg">
<path d="M22.2881 0H4.1825C1.87618 0 0 1.77195 0 3.95014V21.0499C0 23.2281 1.87618 25 4.1825 25H22.2881C24.5944 25 26.4706 23.2281 26.4706 21.0499V3.95014C26.4706 1.77195 24.5944 0 22.2881 0Z" fill="#2B9307"/>
<path d="M17.8359 7.35291C17.3862 7.35291 16.9636 7.52813 16.6455 7.84629L10.4161 14.0858L8.75584 12.4256C8.43797 12.1077 8.01532 11.9325 7.56576 11.9325C7.11613 11.9325 6.69348 12.1077 6.37554 12.4256C6.05767 12.7434 5.88267 13.1661 5.88267 13.6156C5.88267 14.0652 6.05767 14.4878 6.37554 14.8056L9.22628 17.6564C9.54414 17.9743 9.96679 18.1495 10.4164 18.1495C10.8658 18.1495 11.2886 17.9742 11.6069 17.6561L19.0261 10.2262C19.6822 9.5699 19.6821 8.5021 19.0261 7.84578C18.7082 7.52798 18.2855 7.35291 17.8359 7.35291Z" fill="white"/>
</svg>
