<svg width="35" height="33" viewBox="0 0 35 33" fill="none" xmlns="http://www.w3.org/2000/svg">
<path fill-rule="evenodd" clip-rule="evenodd" d="M33.9063 16.9491C33.6263 16.9491 33.3465 16.8423 33.1329 16.6287L32.2656 15.7614V29.6657C32.2656 31.3995 30.855 32.8102 29.1211 32.8102H21.875H13.125H5.87889C4.14503 32.8102 2.73436 31.3996 2.73436 29.6657V15.7616L1.86715 16.6288C1.44004 17.056 0.747493 17.056 0.320384 16.6288C-0.106795 16.2017 -0.106795 15.5091 0.320384 15.082L13.9231 1.47923C15.8954 -0.493077 19.1047 -0.493077 21.0769 1.47923L34.6796 15.0819C35.1068 15.5091 35.1068 16.2016 34.6796 16.6287C34.4661 16.8423 34.1862 16.9491 33.9063 16.9491ZM14.2187 30.6227H20.7813V22.0094C20.7813 21.3309 20.2292 20.7789 19.5508 20.7789H15.4492C14.7707 20.7789 14.2187 21.3309 14.2187 22.0094V30.6227ZM22.9688 30.6227V22.0094C22.9688 20.1247 21.4355 18.5914 19.5508 18.5914H15.4492C13.5645 18.5914 12.0312 20.1247 12.0312 22.0094V30.6227H5.87889C5.35116 30.6227 4.92186 30.1934 4.92186 29.6657V13.5741L15.4699 3.02607C16.5893 1.90661 18.4108 1.90661 19.5301 3.02607L30.0781 13.574V29.6657C30.0781 30.1934 29.6488 30.6227 29.1211 30.6227H22.9688Z" fill="#FF00EB"/>
</svg>
